<?xml version="1.0" standalone="no"?>
<!DOCTYPE svg PUBLIC "-//W3C//DTD SVG 20010904//EN"
 "http://www.w3.org/TR/2001/REC-SVG-20010904/DTD/svg10.dtd">
<svg version="1.0" xmlns="http://www.w3.org/2000/svg"
 width="270.000000pt" height="256.000000pt" viewBox="0 0 270.000000 256.000000"
 preserveAspectRatio="xMidYMid meet">
<g transform="translate(0.000000,256.000000) scale(0.100000,-0.100000)"
fill="#000000" stroke="none">
<path style="fill:#6C6C6C" d="M1010 2134 c0 -337 -3 -425 -12 -421 -7 2 -184 60 -393 127 -209 68
-385 125 -392 127 -15 6 -219 -615 -207 -627 5 -4 180 -63 389 -130 209 -67
386 -126 393 -129 8 -5 -66 -115 -233 -344 -135 -185 -245 -340 -245 -344 0
-5 120 -94 265 -200 l265 -192 39 52 c21 29 132 180 246 337 114 157 211 285
215 285 4 0 101 -128 215 -285 114 -157 225 -308 246 -337 l39 -52 265 192
c145 106 265 195 265 200 0 4 -110 159 -245 344 -167 229 -241 339 -233 344 7
3 184 62 393 129 209 67 384 126 388 130 13 12 -191 633 -206 627 -7 -2 -183
-59 -392 -127 -209 -67 -386 -125 -392 -127 -10 -4 -13 84 -13 421 l0 426
-330 0 -330 0 0 -426z"/>
</g>
</svg>
